<svg width="44" height="48" viewBox="0 0 44 48" fill="none" xmlns="http://www.w3.org/2000/svg" aria-hidden="true" focusable="false">
  <path d="M43.2 34.8C43.2 35.712 42.696 36.504 41.928 36.912L22.968 47.568C22.584 47.856 22.104 48 21.6 48C21.096 48 20.616 47.856 20.232 47.568L1.272 36.912C0.504 36.504 0 35.712 0 34.8V13.2C0 12.288 0.504 11.496 1.272 11.088L20.232 0.432C20.616 0.144 21.096 0 21.6 0C22.104 0 22.584 0.144 22.968 0.432L41.928 11.088C42.696 11.496 43.2 12.288 43.2 13.2V34.8ZM21.6 5.16L17.064 7.728L31.2 15.864L35.904 13.2L21.6 5.16ZM7.296 13.2L21.6 21.24L26.304 18.6L12.192 10.44L7.296 13.2ZM4.8 33.384L19.2 41.496V25.392L4.8 17.304V33.384ZM38.4 33.384V17.304L24 25.392V41.496L38.4 33.384Z" fill="#3DCC77"/>
</svg>
