<svg width="10" height="11" viewBox="0 0 10 11" fill="none" xmlns="http://www.w3.org/2000/svg">
<path d="M7.98522 5.90803C8.00258 5.77782 8.01126 5.64327 8.01126 5.50004C8.01126 5.36115 8.00258 5.22226 7.98088 5.09205L8.86196 4.40629C8.94008 4.34553 8.96179 4.22834 8.91404 4.14153L8.08071 2.70056C8.02863 2.60508 7.92012 2.57469 7.82463 2.60508L6.78731 3.02174C6.57029 2.85681 6.34026 2.71792 6.08418 2.61376L5.92793 1.51133C5.91057 1.40716 5.82376 1.33337 5.7196 1.33337H4.05293C3.94876 1.33337 3.8663 1.40716 3.84894 1.51133L3.69269 2.61376C3.43661 2.71792 3.20224 2.86115 2.98956 3.02174L1.95224 2.60508C1.85675 2.57035 1.74824 2.60508 1.69616 2.70056L0.867167 4.14153C0.815084 4.23268 0.832445 4.34553 0.919251 4.40629L1.80033 5.09205C1.77863 5.22226 1.76126 5.36549 1.76126 5.50004C1.76126 5.63459 1.76994 5.77782 1.79165 5.90803L0.91057 6.59379C0.832445 6.65456 0.810744 6.77174 0.858487 6.85855L1.69182 8.29952C1.7439 8.39501 1.85241 8.42539 1.9479 8.39501L2.98522 7.97834C3.20224 8.14327 3.43227 8.28216 3.68835 8.38633L3.8446 9.48876C3.8663 9.59292 3.94876 9.66671 4.05293 9.66671H5.7196C5.82376 9.66671 5.91057 9.59292 5.92359 9.48876L6.07984 8.38633C6.33592 8.28216 6.57029 8.14327 6.78297 7.97834L7.82029 8.39501C7.91578 8.42973 8.02429 8.39501 8.07637 8.29952L8.9097 6.85855C8.96179 6.76306 8.94008 6.65456 8.85762 6.59379L7.98522 5.90803ZM4.88626 7.06254C4.02689 7.06254 3.32376 6.35942 3.32376 5.50004C3.32376 4.64067 4.02689 3.93754 4.88626 3.93754C5.74564 3.93754 6.44876 4.64067 6.44876 5.50004C6.44876 6.35942 5.74564 7.06254 4.88626 7.06254Z" fill="#FFC107"/>
</svg>
